<svg xmlns="http://www.w3.org/2000/svg" viewBox="0 0 1600 1000" role="img" aria-label="Tilt-shift diorama distant buildings layer">
  <defs>
    <filter id="distantSoft">
      <feGaussianBlur stdDeviation="3.2"/>
    </filter>
    <filter id="paperShadow" x="-20%" y="-20%" width="140%" height="150%">
      <feDropShadow dx="0" dy="14" stdDeviation="13" flood-color="#201d1d" flood-opacity="0.18"/>
    </filter>
  </defs>
  <rect width="1600" height="1000" fill="none"/>
  <g filter="url(#distantSoft)" opacity="0.9">
    <path d="M870 650L1005 445L1138 650Z" fill="#d9eef6"/>
    <path d="M1040 650L1224 382L1410 650Z" fill="#fbe0d7"/>
    <path d="M1245 650L1448 466L1600 650Z" fill="#dff0f5"/>
    <rect x="704" y="408" width="190" height="250" rx="22" fill="#fffaf1" opacity="0.72"/>
    <rect x="750" y="460" width="34" height="105" rx="17" fill="#285c8f" opacity="0.24"/>
    <rect x="812" y="460" width="34" height="105" rx="17" fill="#285c8f" opacity="0.18"/>
  </g>
  <g filter="url(#paperShadow)">
    <rect x="1038" y="308" width="250" height="330" rx="28" fill="#fffaf1"/>
    <path d="M1038 308L1162 214L1288 308Z" fill="#ffe7a8"/>
    <rect x="1086" y="370" width="42" height="116" rx="21" fill="#8ec7df"/>
    <rect x="1150" y="370" width="42" height="116" rx="21" fill="#8ec7df"/>
    <rect x="1214" y="370" width="42" height="116" rx="21" fill="#8ec7df"/>
    <rect x="1088" y="525" width="168" height="34" rx="17" fill="#f26b57" opacity="0.78"/>
  </g>
  <g filter="url(#paperShadow)" opacity="0.92">
    <rect x="1322" y="438" width="210" height="190" rx="24" fill="#c8d84b"/>
    <rect x="1364" y="486" width="128" height="22" rx="11" fill="#201d1d" opacity="0.22"/>
    <rect x="1364" y="530" width="86" height="18" rx="9" fill="#201d1d" opacity="0.16"/>
  </g>
</svg>
