<svg xmlns="http://www.w3.org/2000/svg" viewBox="0 0 1600 1000" role="img" aria-label="Tilt-shift diorama content desk layer">
  <defs>
    <filter id="modelShadow" x="-25%" y="-25%" width="150%" height="160%">
      <feDropShadow dx="0" dy="22" stdDeviation="18" flood-color="#201d1d" flood-opacity="0.26"/>
    </filter>
    <filter id="softEdge">
      <feGaussianBlur stdDeviation="1.1"/>
    </filter>
  </defs>
  <rect width="1600" height="1000" fill="none"/>
  <g filter="url(#modelShadow)">
    <ellipse cx="1040" cy="754" rx="470" ry="84" fill="#201d1d" opacity="0.12"/>
    <rect x="720" y="492" width="500" height="270" rx="34" fill="#fffaf1"/>
    <rect x="752" y="528" width="438" height="58" rx="20" fill="#201d1d"/>
    <circle cx="792" cy="557" r="12" fill="#f26b57"/>
    <circle cx="830" cy="557" r="12" fill="#c8d84b"/>
    <circle cx="868" cy="557" r="12" fill="#8ec7df"/>
    <rect x="760" y="620" width="176" height="116" rx="18" fill="#d9eef6"/>
    <rect x="966" y="620" width="176" height="116" rx="18" fill="#ffe7a8"/>
    <rect x="790" y="650" width="112" height="16" rx="8" fill="#285c8f" opacity="0.62"/>
    <rect x="790" y="684" width="78" height="14" rx="7" fill="#285c8f" opacity="0.32"/>
    <rect x="996" y="650" width="108" height="16" rx="8" fill="#d29a25" opacity="0.72"/>
    <rect x="996" y="684" width="70" height="14" rx="7" fill="#d29a25" opacity="0.38"/>
  </g>
  <g filter="url(#modelShadow)">
    <rect x="1160" y="604" width="220" height="150" rx="24" fill="#f26b57"/>
    <path d="M1192 650H1344" stroke="#fffaf1" stroke-width="18" stroke-linecap="round"/>
    <path d="M1192 692H1295" stroke="#fffaf1" stroke-width="14" stroke-linecap="round" opacity="0.72"/>
    <circle cx="1340" cy="704" r="28" fill="#ffe7a8"/>
  </g>
  <g filter="url(#modelShadow)">
    <path d="M596 720C596 612 680 526 784 526C888 526 972 612 972 720V792H596Z" fill="#c8d84b"/>
    <rect x="668" y="610" width="224" height="122" rx="22" fill="#fffaf1"/>
    <path d="M704 650H858" stroke="#201d1d" stroke-width="16" stroke-linecap="round" opacity="0.22"/>
    <path d="M704 692H818" stroke="#201d1d" stroke-width="14" stroke-linecap="round" opacity="0.16"/>
  </g>
  <g filter="url(#softEdge)" opacity="0.86">
    <path d="M672 500L702 454L732 500Z" fill="#f26b57"/>
    <path d="M1298 574L1326 526L1356 574Z" fill="#285c8f"/>
  </g>
</svg>
